<svg width="292" height="256" viewBox="0 0 292 256" fill="none" xmlns="http://www.w3.org/2000/svg">
<rect width="291.34" height="256" fill="url(#paint0_linear_591_369)"/>
<path d="M16.2992 236L19.9019 230.872V232.23L16.578 227.27H18.6549L19.6109 228.735C19.79 229.011 19.937 229.26 20.0519 229.482C20.1668 229.704 20.272 229.917 20.3674 230.121C20.4628 230.325 20.5687 230.537 20.6853 230.758H20.2103C20.3311 230.539 20.4397 230.328 20.5362 230.124C20.6326 229.92 20.7397 229.706 20.8575 229.483C20.9753 229.26 21.1237 229.011 21.3027 228.735L22.2758 227.27H24.3014L21.0371 232.133V230.841L24.5604 236H22.4418L21.2258 234.171C21.0659 233.925 20.9362 233.716 20.8366 233.544C20.7371 233.372 20.6474 233.21 20.5677 233.056C20.488 232.902 20.3949 232.729 20.2886 232.538H20.57C20.4676 232.724 20.3755 232.894 20.2938 233.049C20.2122 233.204 20.1211 233.368 20.0206 233.542C19.9202 233.715 19.7861 233.925 19.6184 234.171L18.3685 236H16.2992ZM30.5425 228.754V227.27H37.6717V228.754H35.005V236H33.2146V228.754H30.5425ZM40.0998 236V227.27H41.8903V230.796H45.6939V227.27H47.4843V236H45.6939V232.28H41.8903V236H40.0998ZM50.2647 236V227.27H53.6706C54.3334 227.27 54.8972 227.387 55.362 227.621C55.8268 227.856 56.1814 228.186 56.426 228.613C56.6705 229.039 56.7928 229.538 56.7928 230.11C56.7928 230.687 56.6689 231.183 56.4212 231.598C56.1735 232.013 55.814 232.332 55.3428 232.553C54.8715 232.775 54.3003 232.885 53.629 232.885H51.3224V231.436H53.3453C53.7092 231.436 54.0092 231.386 54.2452 231.286C54.4813 231.186 54.6574 231.038 54.7737 230.842C54.8899 230.646 54.9481 230.402 54.9481 230.11C54.9481 229.815 54.8899 229.567 54.7737 229.365C54.6574 229.163 54.4808 229.009 54.2439 228.903C54.0069 228.798 53.7056 228.745 53.3399 228.745H52.0551V236H50.2647ZM55.1221 236L53 232.027H54.9374L57.1073 236H55.1221ZM59.3455 236V227.27H65.1911V228.754H61.136V230.861H64.8819V232.32H61.136V234.516H65.2027V236H59.3455ZM67.3314 236L70.3178 227.27H72.6574L75.7196 236H73.7314L72.3323 231.789C72.1621 231.245 71.9907 230.649 71.8181 230.002C71.6456 229.355 71.4635 228.649 71.2719 227.886H71.66C71.4744 228.653 71.3007 229.362 71.139 230.013C70.9774 230.663 70.8162 231.255 70.6556 231.789L69.3061 236H67.3314ZM69.1973 233.974V232.571H73.8537V233.974H69.1973ZM81.0631 236H78.8018V234.459H80.9801C81.5413 234.459 82.012 234.359 82.3923 234.161C82.7726 233.962 83.059 233.654 83.2515 233.235C83.444 232.817 83.5403 232.282 83.5403 231.63C83.5403 230.979 83.4434 230.446 83.2497 230.031C83.056 229.615 82.7705 229.308 82.3931 229.109C82.0158 228.91 81.5483 228.811 80.9907 228.811H78.7613V227.27H81.0953C81.9722 227.27 82.7256 227.444 83.3555 227.793C83.9853 228.141 84.4704 228.641 84.8106 229.293C85.1508 229.944 85.3209 230.723 85.3209 231.63C85.3209 232.538 85.1509 233.319 84.8108 233.972C84.4708 234.625 83.9828 235.126 83.347 235.476C82.7111 235.825 81.9498 236 81.0631 236ZM79.784 227.27V236H77.9936V227.27H79.784Z" fill="white"/>
<defs>
<linearGradient id="paint0_linear_591_369" x1="145.67" y1="256" x2="145.67" y2="0" gradientUnits="userSpaceOnUse">
<stop stop-opacity="0.6"/>
<stop offset="1" stop-opacity="0"/>
</linearGradient>
</defs>
</svg>
